<?xml version="1.0" standalone="no"?>
<!DOCTYPE svg PUBLIC "-//W3C//DTD SVG 20010904//EN"
 "http://www.w3.org/TR/2001/REC-SVG-20010904/DTD/svg10.dtd">
<svg version="1.0" xmlns="http://www.w3.org/2000/svg"
 width="512.000000pt" height="512.000000pt" viewBox="0 0 512.000000 512.000000"
 preserveAspectRatio="xMidYMid meet">

<g transform="translate(0.000000,512.000000) scale(0.100000,-0.100000)"
fill="#000000" stroke="none">
<path d="M3207 4871 c-74 -79 -119 -164 -138 -259 -22 -118 0 -221 95 -427 47
-105 70 -186 82 -292 3 -35 9 -63 13 -63 10 1 68 83 94 135 53 106 72 191 72
320 0 118 -1 123 -52 276 -48 143 -62 202 -78 332 -3 26 -10 47 -14 47 -5 0
-38 -31 -74 -69z"/>
<path d="M2825 4775 c-409 -210 -795 -576 -965 -914 -43 -86 -95 -249 -115
-358 -36 -198 -30 -470 15 -690 11 -52 20 -98 20 -102 0 -3 -12 14 -27 39 -48
82 -109 154 -201 238 -70 63 -99 98 -122 145 -41 83 -56 177 -43 259 6 35 10
64 9 65 -3 4 -119 -151 -179 -240 -303 -453 -462 -944 -444 -1367 10 -213 70
-440 175 -662 216 -457 611 -796 1096 -942 158 -48 277 -67 462 -73 526 -18
1006 177 1369 559 221 231 376 528 445 853 27 126 38 400 21 530 -50 381 -188
727 -436 1100 -119 178 -326 437 -340 423 -2 -2 0 -29 5 -59 5 -29 13 -139 16
-244 8 -215 -3 -321 -43 -449 -25 -79 -94 -229 -111 -240 -4 -2 -2 34 6 82 20
133 11 425 -17 520 -42 143 -109 254 -293 484 -70 86 -144 187 -166 225 -129
222 -144 476 -45 786 13 43 23 81 20 83 -2 2 -52 -21 -112 -51z m-146 -1829
c55 -198 130 -320 327 -527 252 -266 360 -439 426 -683 19 -68 22 -108 22
-246 1 -191 -10 -242 -79 -385 -155 -322 -457 -515 -805 -515 -240 0 -445 86
-619 260 -149 151 -231 311 -266 522 -19 116 -30 322 -20 374 l7 39 20 -50
c49 -123 148 -234 260 -291 l49 -25 -41 59 c-94 138 -132 269 -134 457 -1 137
16 237 56 340 93 238 292 509 588 805 l175 175 6 -115 c4 -70 14 -146 28 -194z"/>
<path d="M1825 4650 c-43 -132 -88 -199 -226 -334 -105 -103 -137 -141 -160
-191 -66 -140 -41 -325 64 -471 l42 -59 8 45 c38 206 68 276 182 425 130 171
172 285 163 447 -3 60 -11 98 -29 138 l-26 55 -18 -55z"/>
</g>
</svg>
