<?xml version="1.0" standalone="no"?>
<!DOCTYPE svg PUBLIC "-//W3C//DTD SVG 20010904//EN"
 "http://www.w3.org/TR/2001/REC-SVG-20010904/DTD/svg10.dtd">
<svg version="1.0" xmlns="http://www.w3.org/2000/svg"
 width="768.000000pt" height="768.000000pt" viewBox="0 0 768.000000 768.000000"
 preserveAspectRatio="xMidYMid meet">
<metadata>
Created by potrace 1.16, written by Peter Selinger 2001-2019
</metadata>
<g transform="translate(0.000000,768.000000) scale(0.150000,-0.150000)"
fill="#000000" stroke="none">
<path d="M1335 5011 c-22 -10 -54 -34 -72 -52 -67 -71 -63 21 -63 -1359 0
-1380 -4 -1288 63 -1359 71 -74 29 -71 817 -71 788 0 746 -3 817 71 67 71 63
-21 63 1359 0 1380 4 1288 -63 1359 -71 74 -29 71 -817 71 -666 0 -707 -1
-745 -19z m348 -198 c20 -42 41 -73 57 -80 18 -9 109 -13 340 -13 231 0 322 4
340 13 16 7 37 38 57 80 l33 67 122 0 c111 0 124 -2 145 -22 l23 -21 0 -1236
0 -1235 -22 -23 -21 -23 -676 0 -675 0 -23 22 -23 21 0 1236 0 1235 22 23 c20
22 29 23 145 23 l123 0 33 -67z"/>
</g>
</svg>
